<svg width="24" height="24" viewBox="0 0 24 24" fill="none" xmlns="http://www.w3.org/2000/svg">
  <path opacity="0.4" d="M2.28099 19.6575C2.36966 20.5161 2.93261 21.1957 3.77688 21.3755C5.1095 21.6592 7.6216 22 12 22C16.3784 22 18.8905 21.6592 20.2232 21.3755C21.0674 21.1957 21.6303 20.5161 21.719 19.6575C21.8505 18.3844 22 16.0469 22 12C22 7.95305 21.8505 5.6156 21.719 4.34251C21.6303 3.48389 21.0674 2.80424 20.2231 2.62451C18.8905 2.34081 16.3784 2 12 2C7.6216 2 5.1095 2.34081 3.77688 2.62451C2.93261 2.80424 2.36966 3.48389 2.28099 4.34251C2.14952 5.6156 2 7.95305 2 12C2 16.0469 2.14952 18.3844 2.28099 19.6575Z" fill="#637381"/>
  <path d="M8 17C8 14.7909 9.79086 13 12 13C14.2091 13 16 14.7909 16 17H8Z" fill="#637381"/>
  <path d="M15 8C15 9.65685 13.6569 11 12 11C10.3431 11 9 9.65685 9 8C9 6.34315 10.3431 5 12 5C13.6569 5 15 6.34315 15 8Z" fill="#637381"/>
  <path opacity="0.4" d="M10 19H14C14 19 14 20 13 20H11C10 20 10 19 10 19Z" fill="#637381"/>
</svg>
